<?xml version="1.0" encoding="UTF-8" standalone="no"?>
<!-- Creator: CorelDRAW X7 -->
<svg xmlns:dc="http://purl.org/dc/elements/1.1/" xmlns:cc="http://creativecommons.org/ns#" xmlns:rdf="http://www.w3.org/1999/02/22-rdf-syntax-ns#" xmlns:svg="http://www.w3.org/2000/svg" xmlns="http://www.w3.org/2000/svg" xmlns:sodipodi="http://sodipodi.sourceforge.net/DTD/sodipodi-0.dtd" xmlns:inkscape="http://www.inkscape.org/namespaces/inkscape" xml:space="preserve" width="9.94584in" height="1.6625in" version="1.1" style="shape-rendering:geometricPrecision; text-rendering:geometricPrecision; image-rendering:optimizeQuality; fill-rule:evenodd; clip-rule:evenodd" viewBox="0 0 9946 1662" id="svg2" inkscape:version="0.48.5 r10040" sodipodi:docname="illustrator 1-1.svg"><metadata id="metadata97"><rdf:RDF><cc:Work rdf:about=""><dc:format>image/svg+xml</dc:format><dc:type rdf:resource="http://purl.org/dc/dcmitype/StillImage"/><dc:title/></cc:Work></rdf:RDF></metadata><sodipodi:namedview pagecolor="#ffffff" bordercolor="#666666" borderopacity="1" objecttolerance="10" gridtolerance="10" guidetolerance="10" inkscape:pageopacity="0" inkscape:pageshadow="2" inkscape:window-width="1280" inkscape:window-height="972" id="namedview95" showgrid="false" inkscape:zoom="0.99850005" inkscape:cx="445.69239" inkscape:cy="64.992798" inkscape:window-x="-8" inkscape:window-y="-8" inkscape:window-maximized="1" inkscape:current-layer="svg2"/>
 <defs id="defs4">
  <style type="text/css" id="style6">
   
    .fil4 {fill:none}
    .fil3 {fill:#FB171A}
    .fil2 {fill:#16195A;fill-rule:nonzero}
    .fil0 {fill:#16195A;fill-rule:nonzero}
    .fil1 {fill:#FB171A;fill-rule:nonzero}
   
  </style>
 </defs>
 <g id="Layer_x0020_1">
  <metadata id="CorelCorpID_0Corel-Layer"/>
  <g id="_2136875956288">
   <path class="fil0" d="M5772 1278l54 71c7,-13 13,-24 16,-31 3,-7 4,-13 4,-18 0,-10 -7,-16 -22,-18l0 -3 63 0 0 3c-5,1 -9,1 -12,3 -3,1 -6,3 -9,5 -6,5 -13,15 -21,31l-5 10c-3,5 -7,13 -12,21 4,5 9,11 15,17 5,6 10,10 15,14 6,6 11,9 16,12 5,2 9,3 14,3 4,0 8,-1 11,-3 3,-3 6,-7 9,-12l3 1c-6,18 -17,26 -35,26 -6,0 -12,-1 -19,-3 -6,-2 -12,-5 -18,-9 -8,-6 -16,-13 -25,-23 -5,7 -9,11 -12,15 -6,6 -13,11 -22,15 -8,3 -17,5 -27,5 -8,0 -17,-1 -25,-4 -8,-3 -15,-8 -20,-13 -10,-10 -15,-22 -15,-37 0,-14 5,-28 14,-39 4,-5 8,-10 14,-14 5,-4 12,-9 21,-14l3 -2c-7,-9 -12,-16 -15,-21 -6,-12 -10,-23 -10,-32 0,-6 2,-12 5,-18 4,-8 9,-14 17,-18 7,-4 16,-6 26,-6 14,0 25,4 33,11 9,7 13,16 13,26 0,8 -2,15 -6,22 -5,6 -12,12 -22,18 -7,4 -12,7 -14,9zm-24 13c-9,6 -16,13 -21,22 -5,9 -7,20 -7,31 0,8 1,16 3,23 3,7 7,14 11,19 4,4 9,8 15,10 6,3 12,4 18,4 10,0 19,-3 27,-9 3,-2 6,-4 8,-7 3,-3 5,-7 9,-12l-63 -81zm20 -17c5,-3 9,-7 12,-10 2,-2 5,-6 7,-10 3,-7 5,-16 5,-24 0,-11 -2,-19 -8,-25 -5,-6 -12,-9 -20,-9 -8,0 -14,3 -19,7 -4,5 -7,11 -7,18 0,4 1,9 3,13 2,5 6,11 11,18 5,8 10,15 16,22z" id="path11"/>
   <path class="fil1" d="M1748 1062l0 1 172 0 0 -1 -6 0c-23,0 -37,-4 -42,-13 -6,-9 -9,-25 -9,-49 0,-4 0,-11 1,-20 0,-9 0,-16 0,-20l0 -309c0,-4 0,-11 0,-20 -1,-9 -1,-16 -1,-20 0,-26 3,-42 10,-51 6,-8 19,-12 41,-12l6 0c-11,-1 -40,-1 -85,-1 -45,0 -74,0 -87,0l0 1 6 0c18,0 31,3 39,9 9,8 13,27 13,60 0,4 0,9 0,16 -1,8 -1,13 -1,17l0 310c0,3 0,9 1,16 0,8 0,14 0,17 0,28 -3,47 -8,56 -6,9 -21,13 -44,13l-6 0zm650 -450l0 0 0 317 -357 -381 0 392c0,34 0,59 -1,75 0,19 -4,32 -10,38 -8,6 -22,9 -40,9l-6 0 0 1 157 0 0 -1 -4 0c-21,0 -35,-3 -42,-10 -7,-6 -11,-19 -11,-37l0 -16 0 -318 357 381 0 -392c0,-34 0,-58 1,-75 0,-19 3,-32 11,-38 7,-6 20,-9 39,-9l6 0c-10,-1 -36,-1 -77,-1 -42,0 -68,0 -80,0l0 1 4 0c20,0 35,3 42,9 7,7 11,20 11,39l0 16zm362 -7l0 0 0 333 0 37c0,16 0,28 0,37 -1,17 -3,28 -5,31 -5,13 -22,19 -48,19l-4 0 0 1 171 0 0 -1 -6 0c-20,0 -34,-3 -41,-10 -6,-6 -9,-19 -9,-37 0,-7 0,-18 0,-33 -1,-14 -1,-25 -1,-32l0 -355 116 0 11 0c20,0 34,3 40,10 7,7 11,19 11,38l0 9 1 0 0 -86 -226 0 -71 2c-40,0 -78,-7 -117,-21l-17 80 1 0c9,-23 33,-34 71,-34 4,0 10,0 18,0 7,0 12,0 16,0l38 0c4,0 10,0 19,0 8,1 14,1 19,1 0,0 1,0 3,-1 1,0 3,0 3,0 5,0 7,3 7,7l0 5zm367 26l0 0c-1,9 -1,16 -1,20l0 309c0,3 0,10 1,19 0,9 0,16 0,21 0,24 -3,41 -9,49 -6,9 -20,13 -41,13l-7 0c25,0 66,0 124,1 58,1 99,1 126,1 5,0 9,-3 12,-9 2,-6 3,-11 3,-15 11,-32 19,-53 21,-63l-1 0c-7,20 -20,34 -39,43 -19,10 -40,14 -63,14 -24,0 -41,-6 -53,-17 -11,-11 -16,-29 -16,-54l0 -23 0 -125c5,0 13,0 24,-1 10,-1 19,-1 24,-1 25,0 42,3 51,8 10,6 15,20 15,40l0 11 0 0 0 -134 0 0 0 10c0,11 -2,21 -4,27 -3,7 -8,12 -14,15 -7,3 -14,4 -20,5 -7,1 -16,1 -28,1 -5,0 -14,0 -24,0 -11,-1 -19,-1 -24,-1l0 -219 78 0c2,0 7,0 13,-1 6,0 11,0 14,0 6,0 10,0 13,1 7,1 13,5 18,10 5,5 7,12 7,19l1 0 0 -58 -258 0 0 1 7 0c12,0 21,1 28,3 7,2 12,7 15,13 3,7 6,13 6,19 1,7 1,16 1,28 0,4 0,11 0,20zm693 344l0 0 0 41c0,1 0,2 1,4 0,2 0,4 0,6 0,4 -1,7 -3,9 -3,2 -5,5 -7,5 -2,1 -5,3 -8,3 -21,12 -46,17 -74,17 -15,0 -30,-2 -45,-5 -58,-11 -108,-40 -148,-86 -40,-46 -60,-102 -60,-169 0,-43 9,-84 27,-124 18,-39 44,-70 76,-94 31,-21 67,-32 110,-32 14,0 25,1 32,2 33,2 61,8 83,17 19,8 36,18 51,32 14,14 21,30 22,49 0,-3 1,-6 1,-8 0,-1 0,-3 0,-6 -1,-2 -1,-4 -1,-6l0 -44c0,-1 0,-3 1,-5 0,-3 0,-5 0,-6 0,-6 -2,-11 -7,-15 -5,-3 -9,-5 -13,-6 -30,-16 -78,-23 -142,-23l-31 0c-13,0 -23,0 -30,1 -78,8 -139,45 -185,109 -34,49 -52,104 -52,165 0,18 2,35 6,49 10,43 29,81 59,115 29,34 65,60 105,78 40,19 82,29 126,31 2,0 5,0 9,0 5,1 9,1 11,1 49,0 91,-11 126,-33 4,-1 8,-4 12,-6 4,-2 5,-6 5,-11l0 -6 0 -108c0,-27 7,-43 22,-49 7,-3 19,-4 36,-4l0 -1 -172 0 0 1 6 0c11,0 20,1 27,3 7,2 12,6 16,10 3,4 5,10 7,16 0,6 1,12 1,21 0,8 0,16 0,26l0 36zm199 87l0 0 0 1 171 0 0 -1 -9 0c-19,0 -32,-4 -39,-11 -6,-8 -9,-21 -9,-39 0,-3 0,-7 0,-12 0,-6 0,-9 0,-11l0 -146c4,0 11,0 19,0 8,1 14,1 19,1 25,0 44,-2 58,-7 2,-1 4,-1 6,-1 2,0 4,0 5,1 1,2 3,3 4,6 1,2 2,3 2,4l19 26c4,4 12,14 24,30 11,16 20,29 26,37 2,4 6,8 10,15 4,7 7,11 8,14 26,35 58,62 98,83 39,20 80,30 123,30l0 -5c0,-3 -1,-5 -3,-7 -3,-1 -7,-2 -11,-3 -4,0 -7,0 -7,-1 -21,-7 -40,-17 -59,-29 -9,-7 -19,-16 -29,-26 -10,-11 -17,-19 -22,-25 -5,-5 -13,-16 -24,-31l-73 -97 -29 -39c-6,-8 -9,-13 -9,-14 0,-1 3,-5 10,-12 7,-9 13,-18 19,-27 11,-22 16,-46 16,-72 0,-5 0,-14 -1,-24 -5,-31 -18,-57 -40,-80 -23,-22 -49,-36 -79,-41 -11,-2 -22,-2 -34,-2 -6,0 -13,0 -22,0 -10,0 -17,0 -21,0l-117 0 0 1 6 0c17,0 29,2 37,8 7,5 12,15 12,28 1,7 2,18 2,34l0 32 0 310 0 33c0,28 -3,47 -8,56 -6,9 -21,13 -43,13l-6 0zm114 -496l0 0c4,0 11,0 19,0 8,0 14,0 18,0 26,0 46,4 58,14 33,24 49,62 49,114 0,22 -4,44 -12,65 -9,22 -20,38 -33,49 -13,11 -33,16 -59,16 -5,0 -12,0 -20,0 -9,0 -16,0 -20,0l0 -258zm582 447l0 0c5,-13 18,-46 38,-98l16 -40c1,-2 1,-5 3,-8 1,-3 4,-5 7,-5l36 0 73 0 28 0 4 0c4,0 7,2 9,5 1,3 2,6 3,9l11 30c5,13 12,32 21,55 10,24 15,39 18,44 7,16 11,28 11,37 0,13 -10,20 -30,20l-8 0 0 1 176 0 0 -1c-23,0 -39,-2 -49,-7 -14,-7 -26,-22 -35,-43 -10,-22 -18,-40 -22,-54 -1,-4 -26,-68 -74,-192 -49,-125 -73,-188 -73,-188 -1,-1 -2,-4 -4,-9 -1,-6 -3,-10 -4,-13 -2,-4 -3,-6 -5,-8l-18 48 -37 95 -100 256c-17,43 -28,68 -31,74 -8,16 -18,27 -28,32 -10,6 -28,9 -51,9l0 1 145 0 0 -1 -8 0c-20,0 -30,-7 -30,-19 0,-6 3,-16 8,-30zm200 -180l0 0 -130 0 45 -116c1,-2 4,-10 8,-23 4,-13 9,-23 12,-28l65 167zm350 -202l0 0c-1,9 -1,16 -1,20l0 309c0,3 0,10 1,19 0,9 0,16 0,21 0,24 -3,41 -9,49 -6,9 -20,13 -42,13l-7 0c25,0 67,0 125,1 57,1 99,1 125,1 5,0 10,-3 12,-9 3,-6 3,-11 3,-15 12,-32 19,-53 21,-63l0 0c-8,20 -21,34 -40,43 -18,10 -40,14 -62,14 -31,0 -52,-10 -62,-30 -5,-10 -8,-24 -8,-41l0 -9 0 -253c0,-7 0,-18 0,-31 0,-14 0,-24 0,-31 0,-14 0,-24 0,-30 1,-16 7,-31 18,-43 11,-12 24,-18 40,-18 -12,-1 -40,-1 -85,-1 -45,0 -74,0 -87,0l0 1 7 0c12,0 22,1 29,3 7,2 11,7 15,13 3,7 5,13 6,19 1,7 1,16 1,28 0,4 0,11 0,20z" id="path13"/>
   <path class="fil2" d="M6009 576c18,11 32,23 40,39l1 0 0 -49c-16,-4 -33,-8 -53,-13 -21,-3 -40,-6 -57,-6 -36,0 -64,13 -84,40 -21,26 -31,58 -31,93 0,28 7,54 20,77 9,16 22,30 38,43 16,14 34,27 54,40 20,14 36,26 46,36 24,22 36,47 36,76 0,26 -9,50 -28,69 -19,19 -42,28 -67,28 -22,0 -42,-6 -61,-18 -19,-11 -33,-27 -43,-46 -7,-14 -11,-26 -11,-37l-1 0 0 63c0,1 0,3 0,6 -1,4 -1,6 -1,8 0,7 3,11 6,13 4,2 9,4 12,4 36,14 71,21 105,21 40,0 71,-11 94,-34 28,-28 42,-60 42,-96 0,-36 -13,-67 -38,-93 -1,-2 -12,-10 -31,-25l-50 -38c-3,-2 -7,-5 -12,-9 -5,-4 -11,-7 -15,-11 -4,-3 -8,-6 -12,-10 -22,-21 -34,-48 -35,-77l0 -4c0,-28 7,-53 21,-74 14,-20 34,-31 60,-31 19,0 37,5 55,15zm324 -27l0 0c-41,16 -77,41 -108,75 -31,34 -52,73 -64,116 -7,24 -10,50 -10,77 0,49 11,94 34,137 22,43 54,76 96,99 33,17 67,27 101,27 13,0 26,-1 38,-3 51,-7 96,-26 137,-59 40,-32 70,-71 89,-119 13,-32 19,-69 19,-111l0 -13c-2,-56 -20,-105 -53,-151 -34,-45 -76,-74 -128,-87 -19,-5 -36,-7 -49,-7 -33,0 -67,6 -102,19zm55 7l0 0c25,0 51,6 80,19 46,20 81,52 108,97 26,45 39,94 39,146 0,46 -11,87 -31,125 -16,29 -35,54 -60,75 -25,20 -52,32 -82,36 -3,1 -7,1 -13,1 -22,0 -47,-6 -74,-16 -48,-20 -86,-52 -113,-98 -27,-45 -41,-94 -41,-148 0,-40 9,-79 25,-114 15,-32 35,-59 61,-83 27,-22 55,-36 87,-40 3,0 8,0 14,0zm409 75l0 0c-1,9 -1,16 -1,20l0 309c0,3 0,10 1,19 0,9 0,16 0,21 0,24 -3,41 -9,49 -6,9 -20,13 -42,13l-7 0c25,0 67,0 125,1 57,1 99,1 125,1 6,0 10,-3 12,-9 3,-6 3,-11 3,-15 12,-32 19,-53 22,-63l-1 0c-8,20 -21,34 -39,43 -19,10 -40,14 -63,14 -31,0 -51,-10 -62,-30 -5,-10 -8,-24 -8,-41l0 -9 0 -253c0,-7 0,-18 0,-31 0,-14 0,-24 0,-31 0,-14 0,-24 0,-30 1,-16 7,-31 19,-43 10,-12 23,-18 39,-18 -12,-1 -40,-1 -85,-1 -45,0 -74,0 -87,0l0 1 7 0c12,0 22,1 29,3 7,2 11,7 15,13 3,7 5,13 6,19 1,7 1,16 1,28 0,4 0,11 0,20zm740 329l0 0 0 -310 0 -32c0,-28 3,-47 8,-56 5,-9 19,-14 42,-14l7 0 0 -1 -172 0 0 1 10 0c19,0 32,4 38,11 6,9 9,22 9,40l0 323c0,1 0,4 1,7 0,4 0,6 0,8 0,13 -8,28 -22,44 -29,34 -64,52 -104,53 -22,0 -41,-2 -57,-7 -25,-9 -47,-23 -65,-43 -18,-20 -30,-43 -35,-69 -3,-11 -5,-26 -5,-45 0,-3 0,-9 1,-16 0,-8 0,-14 0,-18l0 -231 0 -6c0,-20 4,-33 11,-40 6,-7 21,-11 41,-11l5 0c-11,-1 -40,-1 -85,-1 -45,0 -74,0 -87,0l0 1 11 0c17,0 29,3 35,9 5,6 9,17 11,33 1,11 2,23 2,34 0,7 0,16 -1,29 0,13 0,22 0,28l0 154 0 18c0,45 5,79 16,103 14,33 37,59 70,78 32,19 66,29 103,29 24,0 46,-5 69,-13 27,-10 56,-32 85,-66l0 79 115 0 0 -1 -7 0c-6,0 -11,0 -16,-1 -4,0 -8,-1 -12,-3 -4,0 -6,-2 -8,-3 -2,-2 -5,-4 -6,-6 -2,-3 -4,-5 -5,-8 0,-3 -1,-6 -2,-10 -1,-3 -1,-7 -1,-11 0,-4 0,-8 0,-13 0,-4 0,-10 0,-15l0 -32zm318 -355l0 0 0 333 0 37c0,16 0,28 -1,37 0,17 -2,28 -4,31 -5,13 -22,19 -49,19l-3 0 0 1 171 0 0 -1 -6 0c-20,0 -34,-3 -41,-10 -7,-6 -10,-19 -10,-37 0,-7 0,-18 0,-33 0,-14 0,-25 0,-32l0 -355 116 0 10 0c21,0 34,3 41,10 7,7 11,19 11,38l0 9 1 0 0 -86 -226 0 -71 2c-40,0 -79,-7 -117,-21l-17 80 0 0c9,-23 34,-34 72,-34 4,0 10,0 17,0 8,0 13,0 17,0l38 0c4,0 10,0 19,0 8,1 14,1 18,1 1,0 2,0 4,-1 1,0 3,0 3,0 5,0 7,3 7,7l0 5zm309 457l0 0 0 1 172 0 0 -1 -6 0c-23,0 -37,-4 -42,-13 -6,-9 -9,-25 -9,-49 0,-4 0,-11 0,-20 0,-9 0,-16 0,-20l0 -309c0,-4 0,-11 0,-20 0,-9 0,-16 0,-20 0,-26 3,-42 9,-51 6,-8 20,-12 42,-12l6 0c-11,-1 -40,-1 -85,-1 -46,0 -74,0 -87,0l0 1 6 0c18,0 31,3 38,9 9,8 14,27 14,60 0,4 0,9 0,16 -1,8 -1,13 -1,17l0 310c0,3 0,9 1,16 0,8 0,14 0,17 0,28 -3,47 -8,56 -6,9 -21,13 -44,13l-6 0zm429 -513l0 0c-42,16 -78,41 -109,75 -31,34 -52,73 -64,116 -7,24 -10,50 -10,77 0,49 11,94 34,137 22,43 54,76 96,99 33,17 67,27 102,27 12,0 25,-1 37,-3 51,-7 96,-26 137,-59 40,-32 70,-71 89,-119 13,-32 20,-69 20,-111l0 -13c-3,-56 -21,-105 -54,-151 -34,-45 -76,-74 -128,-87 -19,-5 -36,-7 -49,-7 -33,0 -67,6 -101,19zm54 7l0 0c25,0 51,6 80,19 46,20 81,52 108,97 26,45 39,94 39,146 0,46 -10,87 -31,125 -16,29 -35,54 -60,75 -25,20 -52,32 -82,36 -3,1 -7,1 -13,1 -22,0 -47,-6 -74,-16 -48,-20 -86,-52 -113,-98 -27,-45 -41,-94 -41,-148 0,-40 9,-79 25,-114 15,-32 35,-59 61,-83 27,-22 56,-36 87,-40 3,0 8,0 14,0zm766 56l0 0 0 317 -357 -381 0 392c0,34 0,59 -1,75 0,19 -4,32 -10,38 -8,6 -21,9 -40,9l-6 0 0 1 157 0 0 -1 -4 0c-21,0 -35,-3 -42,-10 -7,-6 -11,-19 -11,-37l0 -16 0 -318 357 381 0 -392c0,-34 0,-58 1,-75 0,-19 4,-32 11,-38 7,-6 20,-9 39,-9l6 0c-10,-1 -36,-1 -77,-1 -42,0 -68,0 -80,0l0 1 4 0c21,0 35,3 42,9 7,7 11,20 11,39l0 16zm375 -36l0 0c18,11 32,23 40,39l1 0 0 -49c-15,-4 -33,-8 -53,-13 -20,-3 -39,-6 -57,-6 -36,0 -64,13 -84,40 -20,26 -30,58 -30,93 0,28 7,54 19,77 9,16 22,30 38,43 16,14 34,27 54,40 21,14 36,26 46,36 24,22 36,47 36,76 0,26 -9,50 -28,69 -19,19 -41,28 -67,28 -21,0 -42,-6 -61,-18 -18,-11 -33,-27 -43,-46 -7,-14 -11,-26 -11,-37l-1 0 0 63c0,1 0,3 0,6 0,4 0,6 0,8 0,7 2,11 6,13 3,2 8,4 12,4 35,14 70,21 105,21 40,0 71,-11 93,-34 28,-28 43,-60 43,-96 0,-36 -13,-67 -38,-93 -2,-2 -12,-10 -31,-25l-51 -38c-3,-2 -7,-5 -12,-9 -5,-4 -10,-7 -14,-11 -5,-3 -8,-6 -12,-10 -23,-21 -35,-48 -36,-77l0 -4c0,-28 7,-53 21,-74 14,-20 34,-31 61,-31 18,0 36,5 54,15z" id="path15"/>
   <path class="fil1" d="M828 107l-7 0c-398,2 -721,326 -721,724 0,400 325,724 725,724 399,0 724,-324 724,-724 0,-398 -323,-722 -721,-724zm-3 1433l0 0c-391,0 -709,-318 -709,-709 0,-391 318,-708 709,-708 390,0 708,317 708,708 0,391 -318,709 -708,709z" id="path17"/>
   <path class="fil2" d="M825 209c-343,0 -622,279 -622,622 0,343 279,622 622,622 343,0 622,-279 622,-622 0,-343 -279,-622 -622,-622zm0 1294l0 0c-371,0 -673,-301 -673,-672 0,-370 302,-672 673,-672 370,0 672,302 672,672 0,371 -302,672 -672,672z" id="path19"/>
   <path class="fil3" d="M927 826c0,49 -35,90 -81,99l0 -199c46,10 81,51 81,100zm-123 99l0 0c-46,-10 -81,-51 -81,-99 0,-50 35,-90 82,-100l-1 199zm139 -670l0 0c-116,0 -135,225 -138,446 -60,9 -107,62 -107,125 0,62 46,114 106,124 -2,204 -13,417 -76,417l-25 -37c-5,-3 -10,-5 -15,-5 -16,0 -31,13 -31,32 0,24 24,39 50,39 116,0 135,-225 138,-445 61,-10 107,-62 107,-125 0,-63 -46,-115 -106,-125 2,-203 13,-417 76,-417l25 37c5,3 10,5 16,5 15,0 30,-13 30,-32 0,-24 -24,-39 -50,-39z" id="path21"/>
   <path class="fil2" d="M8194 1186c8,4 14,10 17,16l1 0 0 -21c-7,-1 -14,-3 -23,-5 -9,-2 -17,-3 -24,-3 -16,0 -28,6 -36,17 -9,11 -13,25 -13,40 0,12 3,23 8,33 4,7 9,13 16,19 7,5 15,11 23,17 9,6 16,11 20,15 10,9 15,20 15,33 0,11 -4,21 -12,29 -8,8 -17,12 -28,12 -9,0 -18,-2 -26,-8 -8,-4 -14,-11 -19,-19 -3,-6 -5,-12 -5,-16l0 0 0 27c0,0 0,1 0,2 0,2 0,3 0,4 0,3 1,4 2,5 2,1 4,2 6,2 15,6 30,9 44,9 18,0 31,-5 41,-15 12,-11 18,-25 18,-41 0,-15 -6,-28 -17,-40 0,0 -5,-4 -13,-10l-21 -16c-2,-1 -3,-3 -6,-4 -2,-2 -4,-3 -6,-5 -2,-1 -3,-2 -5,-4 -10,-9 -15,-21 -15,-33l0 -2c0,-12 3,-23 9,-32 6,-8 15,-13 26,-13 8,0 15,2 23,7zm139 -12l0 0c-18,7 -33,17 -47,32 -13,15 -22,31 -27,50 -3,10 -4,21 -4,33 0,21 5,40 14,59 10,18 24,32 41,42 15,7 29,11 44,11 5,0 11,0 16,-1 22,-3 41,-11 59,-25 17,-14 30,-31 38,-51 5,-14 8,-29 8,-48l0 -5c-1,-24 -9,-45 -23,-65 -14,-19 -32,-32 -55,-37 -8,-2 -15,-3 -21,-3 -14,0 -28,3 -43,8zm23 3l0 0c11,0 22,3 34,8 20,9 35,23 47,42 11,19 16,40 16,62 0,20 -4,38 -13,54 -7,12 -15,23 -26,32 -10,8 -22,14 -34,15 -2,0 -4,0 -6,0 -10,0 -20,-2 -32,-6 -20,-9 -36,-23 -48,-42 -12,-19 -18,-40 -18,-63 0,-18 4,-34 11,-49 6,-14 15,-26 26,-36 12,-9 24,-15 37,-17 2,0 4,0 6,0zm175 32l0 0c0,4 0,7 0,9l0 132c0,1 0,4 0,8 0,4 0,7 0,9 0,11 -1,18 -4,21 -2,4 -8,6 -17,6l-3 0c10,0 28,0 53,0 25,0 42,0 54,0 2,0 4,-1 5,-4 1,-2 1,-4 1,-6 5,-14 8,-23 9,-27l0 0c-3,9 -9,15 -17,19 -8,4 -17,6 -27,6 -13,0 -22,-4 -26,-13 -2,-4 -3,-11 -3,-18l0 -3 0 -109c0,-3 0,-7 0,-13 -1,-6 -1,-11 -1,-14 0,-5 0,-10 1,-12 0,-7 2,-13 7,-19 5,-5 10,-7 17,-7 -5,-1 -17,-1 -36,-1 -19,0 -32,0 -37,0l0 1 3 0c5,0 9,0 12,1 3,1 5,3 6,6 2,2 3,5 3,8 0,2 0,6 0,12 0,1 0,4 0,8zm317 141l0 0 0 -133 0 -13c0,-13 1,-21 3,-24 3,-4 9,-6 19,-6l2 0 0 -1 -73 0 0 1 4 0c8,0 14,1 16,5 3,3 4,9 4,16l0 139c0,0 0,1 1,3 0,1 0,2 0,3 0,6 -4,12 -10,19 -12,15 -27,22 -44,23 -10,0 -18,-1 -24,-3 -11,-4 -21,-10 -28,-19 -8,-8 -13,-18 -15,-29 -2,-5 -2,-12 -2,-19 0,-2 0,-4 0,-7 0,-4 0,-6 0,-8l0 -99 0 -2c0,-9 2,-15 4,-18 3,-3 10,-4 18,-4l2 0c-4,-1 -17,-1 -36,-1 -19,0 -32,0 -37,0l0 1 4 0c8,0 13,1 15,4 2,2 4,7 5,13 1,5 1,10 1,15 0,3 0,7 0,13 -1,5 -1,9 -1,12l0 65 0 8c0,20 3,34 7,44 6,14 16,26 30,34 14,8 29,12 44,12 10,0 20,-2 30,-5 11,-5 24,-14 36,-29l0 34 49 0 0 0 -2 0c-3,0 -5,0 -7,-1 -2,0 -4,0 -5,-1 -2,0 -3,-1 -4,-2 -1,0 -2,-1 -3,-2 -1,-1 -1,-2 -1,-3 -1,-2 -1,-3 -1,-5 -1,-1 -1,-2 -1,-4 0,-2 0,-4 0,-6 0,-2 0,-4 0,-6l0 -14zm136 -152l0 0 0 143 0 16c0,6 0,12 0,15 0,7 -1,12 -2,14 -2,5 -9,8 -21,8l-1 0 0 0 73 0 0 0 -3 0c-8,0 -14,-2 -17,-4 -3,-3 -4,-9 -4,-17 0,-3 0,-7 0,-14 -1,-6 -1,-11 -1,-13l0 -152 50 0 5 0c8,0 14,1 17,4 3,3 5,8 5,16l0 4 0 0 0 -37 -97 0 -30 1c-17,0 -34,-3 -50,-9l-7 34 0 0c4,-9 14,-14 31,-14 1,0 4,0 7,0 3,0 6,0 7,0l16 0c2,0 5,0 8,0 4,0 6,0 8,0 1,0 1,0 2,0 0,0 1,0 1,0 2,0 3,1 3,3l0 2zm132 196l0 0 0 0 74 0 0 0 -3 0c-9,0 -15,-2 -18,-6 -2,-4 -4,-11 -4,-21 0,-2 0,-5 1,-9 0,-3 0,-6 0,-8l0 -132c0,-2 0,-5 0,-9 -1,-4 -1,-7 -1,-8 0,-11 2,-19 5,-22 2,-4 8,-5 17,-5l3 0c-5,-1 -17,-1 -36,-1 -20,0 -32,0 -38,0l0 1 3 0c8,0 13,1 16,4 4,3 6,11 6,25 0,2 0,4 0,7 0,3 0,6 0,7l0 133c0,1 0,4 0,7 0,3 0,6 0,7 0,12 -1,20 -3,24 -3,4 -9,6 -19,6l-3 0zm184 -220l0 0c-18,7 -33,17 -47,32 -13,15 -22,31 -27,50 -3,10 -4,21 -4,33 0,21 5,40 14,59 10,18 23,32 41,42 14,7 29,11 44,11 5,0 11,0 16,-1 22,-3 41,-11 58,-25 18,-14 31,-31 39,-51 5,-14 8,-29 8,-48l0 -5c-1,-24 -9,-45 -23,-65 -14,-19 -33,-32 -55,-37 -8,-2 -15,-3 -21,-3 -14,0 -28,3 -43,8zm23 3l0 0c11,0 22,3 34,8 20,9 35,23 47,42 11,19 16,40 16,62 0,20 -4,38 -13,54 -7,12 -15,23 -26,32 -10,8 -22,14 -35,15 -1,0 -3,0 -5,0 -10,0 -20,-2 -32,-6 -20,-9 -37,-23 -48,-42 -12,-19 -18,-40 -18,-63 0,-18 4,-34 11,-49 6,-14 15,-26 26,-36 11,-9 24,-15 37,-17 2,0 4,0 6,0zm328 24l0 0 0 136 -153 -163 0 167c0,15 0,26 0,33 0,8 -2,13 -5,16 -3,2 -9,4 -17,4l-2 0 0 0 67 0 0 0 -2 0c-9,0 -15,-2 -18,-4 -3,-3 -4,-9 -4,-17l0 -6 0 -136 152 163 0 -168c0,-14 0,-25 1,-32 0,-8 1,-14 5,-16 2,-3 8,-4 16,-4l3 0c-5,-1 -16,-1 -33,-1 -18,0 -29,0 -34,0l0 1 1 0c9,0 15,1 18,4 3,3 5,8 5,16l0 7zm161 -15l0 0c7,4 13,10 17,16l0 0 0 -21c-6,-1 -14,-3 -23,-5 -8,-2 -16,-3 -24,-3 -15,0 -27,6 -36,17 -9,11 -13,25 -13,40 0,12 3,23 8,33 4,7 10,13 17,19 6,5 14,11 23,17 9,6 15,11 20,15 10,9 15,20 15,33 0,11 -4,21 -12,29 -8,8 -18,12 -29,12 -9,0 -18,-2 -26,-8 -8,-4 -14,-11 -18,-19 -3,-6 -5,-12 -5,-16l0 0 0 27c0,0 0,1 0,2 -1,2 -1,3 -1,4 0,3 1,4 3,5 1,1 3,2 5,2 15,6 30,9 45,9 17,0 30,-5 40,-15 12,-11 18,-25 18,-41 0,-15 -5,-28 -16,-40 -1,0 -5,-4 -13,-10l-22 -16c-1,-1 -3,-3 -5,-4 -2,-2 -5,-3 -6,-5 -2,-1 -4,-2 -5,-4 -10,-9 -15,-21 -16,-33l0 -2c0,-12 3,-23 9,-32 6,-8 15,-13 26,-13 8,0 16,2 24,7z" id="path23"/>
   <g id="g25">
    <path class="fil2" d="M5384 1214c0,6 0,11 0,17l0 126c0,6 0,11 0,17 0,20 -2,25 -21,25l-3 0 0 1 71 0 0 -1 -4 0c-18,0 -20,-7 -20,-22 0,-5 0,-9 0,-13l0 -70c9,9 17,19 26,29l43 49c6,6 13,12 17,19 1,1 1,3 1,4 0,2 -1,4 -4,4l0 1 61 0 0 -1c-18,0 -31,-11 -44,-23 -18,-19 -35,-39 -52,-59l-20 -22c-2,-2 -5,-5 -6,-7l-2 -3 0 0c0,-1 3,-5 4,-7l13 -20c10,-15 20,-30 31,-44 10,-14 21,-26 39,-26l0 0 -48 0 0 0c4,1 6,3 6,6l0 3c-3,6 -8,12 -12,18l-35 52c-6,9 -13,17 -17,27l-1 0 0 -71c0,-3 0,-7 0,-12 0,-17 4,-23 20,-23l4 0c-23,0 -47,0 -71,0l0 0 3 0c20,0 21,9 21,26z" id="path27"/>
    <path class="fil2" d="M5155 1402l-3 0 0 0 72 0 0 0 -3 0c-20,0 -21,-8 -21,-26 0,-5 0,-11 0,-17l0 -128c0,-5 0,-11 0,-17 0,-20 3,-26 21,-26l3 0c-23,0 -48,0 -72,0l0 0 3 0c5,0 11,1 16,4 5,5 5,15 5,25 0,5 0,9 0,14l0 128c0,5 0,10 0,15 0,21 -1,28 -21,28z" id="path29"/>
    <path class="fil2" d="M5304 1194c15,0 32,10 39,22l0 0 0 -20c-15,-3 -28,-8 -45,-8 -32,0 -48,29 -48,56 0,11 3,22 8,32 13,22 40,32 58,49 9,8 15,19 15,31 0,23 -19,41 -40,41 -18,0 -35,-11 -43,-27 -2,-4 -5,-10 -5,-15l0 0 0 26c0,1 0,4 0,6 0,6 4,6 7,7 13,5 28,9 44,9 14,0 28,-4 39,-15 9,-9 17,-21 17,-39 0,-15 -5,-29 -15,-39 -4,-4 -9,-7 -13,-11l-21 -15c-6,-4 -12,-8 -16,-13 -9,-8 -15,-20 -15,-32l0 -1c0,-22 10,-44 34,-44z" id="path31"/>
    <path class="fil2" d="M4966 1302l0 -106c5,0 10,0 15,0 9,0 17,1 24,6 14,10 20,28 20,46 0,10 -2,19 -5,27 -6,16 -15,27 -38,27 -6,0 -11,0 -16,0zm-45 98l0 0 -2 0 0 0 70 0 0 0 -4 0c-16,0 -19,-7 -19,-21 0,-3 0,-7 0,-9l0 -60c5,0 10,0 15,0 9,0 17,-1 24,-3l3 0c2,0 3,3 4,4l8 11c7,9 14,18 21,27 2,4 4,8 7,12 21,29 55,47 91,47l0 -2c0,-5 -7,-4 -9,-5 -9,-3 -17,-7 -24,-12 -13,-9 -22,-21 -31,-33l-30 -40 -12 -16c-1,-1 -4,-5 -4,-6 0,-2 3,-3 4,-5 3,-3 6,-7 8,-11 5,-9 7,-19 7,-30 0,-3 0,-6 -1,-9 -3,-26 -24,-46 -48,-50 -5,-1 -10,-1 -15,-1 -5,0 -11,0 -17,0l-48 0 0 1 2 0c14,0 20,3 21,14 0,5 0,9 0,14l0 13 0 127 0 14c0,21 -1,29 -21,29z" id="path33"/>
   </g>
   <g id="g35">
    <path class="fil2" d="M4496 1356l0 15 0 17c0,1 1,2 1,4 0,5 -5,6 -7,7 -10,5 -20,7 -31,7 -6,0 -12,-1 -18,-2 -46,-9 -86,-48 -86,-105 0,-34 15,-70 43,-89 14,-10 28,-13 45,-13 4,0 8,0 13,0 11,1 23,3 34,7 14,6 29,17 30,33 0,0 0,-2 0,-3 0,-1 0,-3 0,-5l0 -18c0,-1 0,-3 0,-4 0,-6 -5,-7 -8,-9 -16,-8 -37,-9 -58,-9l-13 0c-4,0 -8,0 -12,0 -35,4 -60,22 -76,45 -13,17 -21,40 -21,68 0,6 0,13 2,20 12,54 65,89 119,91 3,0 5,1 8,1 21,0 38,-5 52,-14 3,-1 7,-2 7,-7l0 -2 0 -44c0,-8 1,-17 9,-21 4,-1 10,-1 15,-1l0 0 -71 0 0 0 2 0c24,0 21,11 21,31z" id="path37"/>
    <path class="fil2" d="M4227 1231c0,5 0,11 0,16l0 127c0,5 0,11 0,16 0,20 -2,26 -21,26l-2 0c31,0 70,1 102,1 6,0 5,-7 6,-10 3,-9 7,-17 9,-26l0 0c-7,17 -25,24 -42,24 -20,0 -29,-9 -29,-29l0 -10 0 -52c7,0 14,0 20,0 18,0 27,2 27,20l0 4 0 0 0 -55 0 0 0 4c0,19 -11,20 -27,20 -6,0 -13,-1 -20,-1l0 -89 33 0c3,0 7,-1 10,-1 2,0 4,0 6,1 6,1 10,5 10,11l0 0 0 -23 -105 0 0 0 2 0c20,0 21,9 21,26z" id="path39"/>
    <path class="fil2" d="M3926 1246l28 72 -56 0 20 -50c2,-7 4,-16 8,-22zm-61 162l0 0c0,-4 2,-9 3,-13 5,-14 11,-28 16,-42l7 -17c1,-2 2,-6 4,-6l16 0 32 0 12 0 1 0c4,0 4,4 5,7l5 12c5,15 11,28 17,43 2,4 5,10 5,16 0,8 -7,8 -13,8l-4 0 0 1 76 0 0 -1c-7,0 -15,0 -21,-3 -14,-7 -19,-28 -24,-41 -2,-4 -64,-163 -64,-164 -1,-3 -3,-11 -6,-12 -1,6 -5,13 -7,20l-16 41 -43 110c-4,10 -8,21 -13,32 -7,13 -13,17 -34,17l0 1 62 0 0 -1 -3 0c-7,0 -13,-1 -13,-8z" id="path41"/>
    <path class="fil2" d="M4639 1306c0,3 -1,7 -1,9l0 71c0,2 1,5 1,7 0,12 -7,14 -18,14l-6 0 0 0 71 0 0 0 -6 0c-13,0 -18,-3 -18,-14 0,-3 0,-5 0,-7l0 -75c0,-4 0,-8 0,-11 0,-2 0,-4 0,-6 1,-3 4,-7 6,-10l12 -21 20 -34c3,-7 7,-15 12,-21 9,-8 21,-12 33,-12l0 0 -57 0 0 0 4 0c4,0 8,1 8,5 0,2 -1,4 -2,6l-9 15 -21 38c-5,7 -9,15 -13,22 -12,-20 -22,-40 -33,-60l-9 -16c-1,-1 -2,-4 -2,-5 0,-4 5,-5 8,-5l4 0 0 0 -70 0 0 0c12,0 24,4 33,12 6,6 9,15 13,22l21 38 13 23c2,5 6,8 6,15z" id="path43"/>
    <path class="fil2" d="M4090 1218l0 2 0 144 0 15c0,6 0,11 0,16 -1,5 0,9 -2,14 -4,7 -13,8 -21,8l-2 0 0 0 74 0 0 0 -3 0c-18,0 -21,-5 -21,-21 0,-9 -1,-18 -1,-28l0 -152 50 0 5 0c18,0 22,5 22,21l0 4 0 0 0 -37 -97 0 -30 0c-20,0 -35,-3 -50,-8l-8 34 0 0c6,-13 19,-15 31,-15 5,0 10,0 15,0l16 0c6,0 11,1 16,1 1,0 2,-1 3,-1 2,0 3,1 3,3z" id="path45"/>
    <path class="fil2" d="M3484 1217l0 2 0 137 0 15c0,5 0,10 0,15 -1,4 0,9 -2,13 -4,8 -13,8 -20,8l-2 0 0 0 71 0 0 0 -3 0c-17,0 -20,-5 -20,-20 0,-9 -1,-17 -1,-26l0 -146 48 0 4 0c17,0 21,5 21,20l0 4 1 0 0 -36 -93 0 -29 1c-19,0 -33,-3 -48,-8l-7 32 0 0c5,-12 17,-14 30,-14 4,0 9,0 13,0l16 0c5,0 10,1 15,1 1,0 2,-1 3,-1 2,0 3,1 3,3z" id="path47"/>
    <path class="fil2" d="M3335 1201c15,0 32,10 39,22l0 0 0 -20c-15,-3 -28,-7 -45,-7 -32,0 -47,27 -47,54 0,11 3,22 8,32 13,22 39,32 57,48 8,8 14,20 14,32 0,22 -18,40 -39,40 -17,0 -34,-11 -42,-27 -3,-4 -5,-10 -5,-15l0 0 0 26c0,1 0,4 0,6 0,6 4,6 7,6 12,5 27,9 43,9 14,0 28,-3 38,-14 10,-9 18,-21 18,-39 0,-14 -6,-28 -16,-39 -3,-4 -8,-6 -12,-10l-21 -15c-5,-4 -11,-8 -16,-12 -8,-8 -14,-20 -15,-32l0 -2c0,-21 11,-43 34,-43z" id="path49"/>
    <path class="fil2" d="M3643 1309l0 -106c5,0 10,0 15,0 8,0 17,1 24,6 13,10 19,29 19,47 0,9 -1,19 -4,27 -7,16 -15,26 -38,26 -6,0 -11,0 -16,0zm-45 98l0 0 -2 0 0 0 70 0 0 0 -4 0c-16,0 -20,-6 -20,-21 0,-3 1,-6 1,-9l0 -60c5,0 10,0 15,0 9,0 17,0 24,-2l2 -1c3,0 4,3 5,5l8 10c7,9 14,18 20,28 3,3 5,8 8,11 21,30 55,47 90,47l0 -2c0,-4 -6,-3 -9,-5 -8,-2 -16,-6 -23,-12 -13,-9 -22,-21 -31,-33l-30 -40 -12 -16c-1,-1 -4,-4 -4,-6 0,-1 3,-3 4,-4 3,-4 6,-8 8,-12 5,-9 7,-19 7,-29 0,-3 -1,-7 -1,-10 -4,-25 -24,-46 -49,-50 -4,0 -9,-1 -14,-1 -6,0 -12,1 -17,1l-48 0 0 0 2 0c14,0 20,3 20,15 1,4 1,9 1,13l0 14 0 127 0 13c0,22 -1,29 -21,29z" id="path51"/>
   </g>
   <g id="g53">
    <path class="fil1" d="M2879 1212l0 6 0 131 -146 -157 0 161c0,10 0,21 0,31 0,16 -6,19 -21,19l-3 0 0 1 65 0 0 -1 -2 0c-16,0 -21,-3 -21,-19l0 -7 0 -130 146 156 0 -160c0,-11 0,-21 0,-31 0,-17 6,-20 21,-20l3 0c-21,-1 -43,0 -65,0l0 0 2 0c16,0 21,4 21,20z" id="path55"/>
    <path class="fil1" d="M2624 1403l-2 0 0 1 71 0 0 -1 -3 0c-20,0 -21,-8 -21,-25 0,-6 0,-12 0,-17l0 -126c0,-6 0,-12 0,-17 0,-20 3,-26 21,-26l3 0c-23,-1 -48,0 -71,0l0 0 2 0c6,0 12,1 16,4 6,5 6,15 6,25 0,4 0,9 0,13l0 127c0,5 0,9 0,14 0,22 -2,28 -22,28z" id="path57"/>
    <path class="fil1" d="M3086 1357l0 14 0 17c0,1 0,3 0,4 0,5 -4,6 -7,7 -10,5 -20,7 -31,7 -6,0 -12,0 -18,-2 -45,-9 -86,-47 -86,-104 0,-35 15,-70 43,-90 14,-9 29,-13 45,-13 4,0 8,0 13,1 11,1 23,3 34,7 14,5 29,17 30,33 0,-1 0,-2 0,-3 0,-2 0,-3 0,-5l0 -18c0,-1 0,-3 0,-5 0,-6 -5,-6 -8,-8 -15,-8 -37,-10 -58,-10l-13 0c-4,0 -8,0 -12,0 -35,4 -60,23 -76,45 -13,18 -21,40 -21,68 0,7 0,14 2,20 12,55 65,90 119,92 3,0 5,0 8,0 21,0 38,-5 52,-13 3,-2 7,-2 7,-7l0 -3 0 -44c0,-7 1,-17 9,-20 4,-2 10,-2 15,-2l0 0 -71 0 0 0 2 0c24,0 22,12 22,32z" id="path59"/>
    <path class="fil1" d="M2463 1200c11,0 22,-1 33,-1 15,0 30,1 44,6 15,6 28,15 39,27 17,18 25,42 25,65 0,52 -39,92 -88,96l-10 1 -11 0 -4 0c-9,0 -20,-1 -25,-9 -2,-3 -3,-6 -3,-9 0,-2 0,-4 0,-7l0 -169zm-47 -8l0 0 0 0c3,0 6,1 8,2 16,6 16,21 16,35l0 2 0 133 0 3c0,14 -1,29 -16,35 -2,1 -5,1 -8,1 2,1 3,1 5,1 3,0 7,-1 9,-1l77 0 8 0c9,0 17,0 26,-1 17,-3 33,-11 47,-21 26,-21 39,-52 39,-84 0,-20 -5,-40 -17,-58 -6,-9 -14,-18 -23,-25 -19,-15 -40,-22 -72,-22 -8,0 -15,0 -22,0l-77 0z" id="path61"/>
    <path class="fil1" d="M2291 1240l26 69 -53 0 18 -47c3,-7 5,-16 9,-22zm-59 155l0 0c0,-4 2,-9 3,-12 5,-14 10,-27 16,-40l6 -17c1,-2 1,-5 4,-5l15 0 30 0 12 0 1 0c4,0 4,3 5,6l5 12c5,14 10,27 16,41 1,4 4,10 4,15 0,8 -6,8 -12,8l-3 0 0 0 72 0 0 0c-7,0 -14,0 -20,-3 -14,-7 -18,-27 -24,-40 -1,-3 -60,-155 -60,-156 -1,-3 -3,-10 -6,-12 -1,7 -4,13 -7,20l-15 39 -41 105c-4,10 -7,20 -13,30 -6,12 -12,17 -32,17l0 0 59 0 0 0 -3 0c-7,0 -12,-1 -12,-8z" id="path63"/>
    <path class="fil1" d="M1836 1206l0 2 0 142 0 16c0,5 0,10 -1,16 0,4 0,9 -2,13 -3,8 -12,8 -20,8l-2 0 0 1 73 0 0 -1 -2 0c-18,0 -22,-5 -22,-20 0,-10 0,-19 0,-28l0 -152 50 0 4 0c18,0 22,6 22,21l0 4 0 0 0 -37 -96 0 -30 1c-20,0 -35,-3 -50,-9l-8 34 0 0c6,-13 19,-15 31,-15 5,0 10,1 15,1l16 0c5,0 10,0 16,0 1,0 2,0 3,0 2,0 3,0 3,3z" id="path65"/>
    <path class="fil1" d="M2003 1306l0 -106c5,0 10,0 15,0 9,0 17,1 24,6 13,10 20,28 20,46 0,10 -2,19 -5,27 -6,16 -15,27 -38,27 -6,0 -11,0 -16,0zm-45 98l0 0 -2 0 0 0 70 0 0 0 -4 0c-16,0 -20,-7 -20,-21 0,-3 1,-7 1,-10l0 -59c5,0 10,0 15,0 9,0 17,-1 24,-3l3 0c2,0 3,3 4,4l8 11c7,9 14,18 20,27 3,4 5,8 8,12 21,29 55,47 91,47l0 -2c0,-5 -7,-4 -9,-5 -9,-3 -17,-7 -24,-12 -13,-9 -22,-21 -31,-33l-30 -40 -12 -16c-1,-1 -4,-5 -4,-6 0,-2 3,-4 4,-5 3,-3 6,-7 8,-11 5,-9 7,-19 7,-30 0,-3 0,-6 -1,-9 -3,-26 -24,-46 -48,-50 -5,-1 -10,-1 -15,-1 -6,0 -11,0 -17,0l-48 0 0 1 2 0c14,0 20,3 21,14 0,5 0,9 0,14l0 13 0 127 0 14c0,21 -1,29 -21,29z" id="path67"/>
   </g>
   <g id="g69">
    <path class="fil2" d="M6942 1197l0 7 0 130 -147 -156 0 160c0,11 0,21 0,31 0,16 -6,20 -21,20l-2 0 0 0 64 0 0 0 -1 0c-17,0 -22,-4 -22,-20l0 -6 0 -131 147 157 0 -161c0,-10 0,-21 0,-31 0,-16 6,-19 21,-19l2 0c-20,-1 -43,0 -64,-1l0 1 1 0c17,0 22,3 22,19z" id="path71"/>
    <path class="fil2" d="M7251 1194c0,6 0,12 0,17l0 127c0,5 0,10 0,16 0,19 -2,26 -20,26l-3 0c31,0 70,0 102,0 6,0 6,-6 6,-9 4,-9 7,-18 9,-26l0 0c-7,17 -25,23 -42,23 -11,0 -20,-2 -25,-12 -3,-6 -3,-11 -3,-17l0 -4 0 -104c0,-8 -1,-17 -1,-25 0,-4 0,-8 1,-13 0,-12 10,-24 23,-24 -23,-1 -47,0 -70,-1l0 1 3 0c19,0 20,8 20,25z" id="path73"/>
    <path class="fil2" d="M6545 1389l-3 0 0 0 71 0 0 0 -4 0c-16,0 -20,-6 -20,-20 0,-4 1,-8 1,-11l0 -63 117 0 0 62c0,4 0,7 0,10 0,17 -5,22 -20,22l-4 0 0 0 71 0 0 0 -3 0c-21,0 -21,-9 -21,-29l0 -13 0 -127 0 -13c0,-22 1,-29 21,-29l3 0 0 0 -71 0 0 0 4 0c17,0 20,7 20,22 0,5 0,9 0,13l0 70 -117 0 0 -70c0,-4 -1,-9 -1,-14 0,-16 5,-21 20,-21l4 0c-23,-1 -47,0 -71,0l0 0 3 0c14,0 19,3 20,15 1,4 1,9 1,14l0 13 0 127 0 14c0,21 -1,28 -21,28z" id="path75"/>
    <path class="fil2" d="M6220 1213c0,5 0,11 0,16l0 127c0,5 0,11 0,16 0,20 -2,26 -20,26l-3 0c31,0 70,1 102,1 6,0 6,-7 7,-10 3,-9 6,-17 8,-26l0 0c-7,17 -25,23 -42,23 -20,0 -28,-8 -28,-29l0 -9 0 -52c6,0 13,0 19,0 19,0 27,2 27,20l0 4 1 0 0 -55 -1 0 0 4c0,19 -11,20 -27,20 -6,0 -13,-1 -19,-1l0 -90 32 0c3,0 7,0 11,0 1,0 3,0 5,0 6,1 10,6 10,12l1 0 0 -23 -106 0 0 0 3 0c19,0 20,9 20,26z" id="path77"/>
    <path class="fil2" d="M6524 1345c-1,3 -6,14 -9,18 -3,4 -7,8 -11,11 -12,10 -26,13 -41,13 -48,0 -88,-36 -99,-77 -2,-10 -3,-19 -3,-28 0,-5 0,-10 0,-15 4,-42 36,-89 82,-89 2,0 4,0 6,0 21,2 41,2 59,15 9,5 17,15 17,26 1,-1 1,-3 1,-5 0,-4 -1,-7 -1,-9l0 -14c0,-1 1,-3 1,-4 0,-4 -4,-4 -5,-5 -17,-10 -45,-12 -69,-12l-5 0c-14,0 -28,2 -42,7 -35,15 -61,49 -67,86 0,7 -1,13 -1,19 0,5 0,9 1,14 6,46 43,80 86,93 12,4 27,7 41,7 12,0 23,-2 34,-7 6,-3 14,-7 18,-12 2,-2 2,-7 2,-9 2,-8 5,-15 5,-23z" id="path79"/>
    <path class="fil2" d="M7766 1338l0 15 0 17c0,0 0,2 0,4 0,5 -4,5 -7,7 -10,5 -20,7 -31,7 -6,0 -12,-1 -18,-2 -45,-9 -86,-48 -86,-105 0,-34 15,-70 43,-90 14,-9 29,-13 45,-13 4,0 8,0 13,1 12,1 23,3 34,7 14,5 29,17 30,33 0,-1 1,-2 1,-3 0,-2 -1,-3 -1,-5l0 -18c0,-1 1,-3 1,-5 0,-6 -5,-6 -9,-8 -15,-8 -36,-10 -58,-10l-13 0c-4,0 -8,0 -12,1 -35,3 -60,22 -76,45 -12,17 -21,40 -21,67 0,7 0,14 2,21 12,54 65,89 119,91 3,0 6,1 8,1 21,0 38,-5 52,-14 3,-2 7,-2 7,-7l0 -2 0 -45c0,-7 1,-16 9,-20 5,-1 10,-1 15,-1l0 -1 -71 0 0 1 3 0c23,0 21,11 21,31z" id="path81"/>
    <path class="fil2" d="M7908 1288c0,3 0,6 0,9l0 71c0,2 0,5 0,7 0,12 -7,14 -18,14l-6 0 0 0 71 0 0 0 -6 0c-13,0 -18,-3 -18,-15 0,-2 1,-5 1,-6l0 -75c0,-4 -1,-8 -1,-11 0,-2 0,-4 1,-6 0,-3 3,-7 5,-10l12 -21 20 -34c3,-7 7,-16 12,-21 9,-8 21,-12 33,-12l0 -1 -56 0 0 1 4 0c3,0 8,1 8,4 0,3 -2,5 -3,7l-9 15 -21 38c-5,7 -9,14 -13,22 -11,-20 -22,-40 -33,-60l-8 -16c-1,-1 -3,-4 -3,-6 0,-3 5,-4 8,-4l4 0 0 -1 -70 0 0 1c12,0 25,4 33,12 6,6 9,15 13,22l21 38 13 22c3,5 6,9 6,16z" id="path83"/>
    <path class="fil2" d="M6080 1199l0 2 0 137 0 15c0,5 0,10 0,15 -1,5 0,9 -2,13 -3,8 -12,8 -20,8l-1 0 0 0 70 0 0 0 -3 0c-17,0 -20,-5 -20,-20 0,-9 -1,-17 -1,-26l0 -146 48 0 4 0c17,0 21,5 21,20l0 4 1 0 0 -36 -93 0 -29 1c-19,0 -33,-3 -48,-8l-7 32 0 0c5,-12 18,-14 30,-14 5,0 9,1 14,1l15 0c5,0 10,0 16,0 0,0 1,0 2,0 2,0 3,0 3,2z" id="path85"/>
    <path class="fil2" d="M7085 1181c2,0 4,0 6,0 11,0 23,3 33,7 39,18 60,59 60,100 0,18 -4,36 -12,52 -12,22 -33,42 -59,45 -2,1 -3,1 -5,1 -11,0 -21,-3 -30,-7 -41,-16 -64,-59 -64,-101 0,-16 4,-32 11,-47 11,-24 33,-47 60,-50zm25 -11l0 0c-16,0 -28,3 -41,8 -35,13 -61,43 -71,78 -3,11 -4,21 -4,32 0,39 18,77 53,97 12,6 25,11 42,11 5,0 10,-1 15,-1 42,-6 77,-35 93,-73 6,-15 8,-30 8,-46l0 -5c-2,-44 -31,-87 -75,-98 -6,-2 -13,-3 -20,-3z" id="path87"/>
    <path class="fil2" d="M7448 1172c2,0 4,0 6,0 11,0 23,3 32,7 39,17 61,59 61,100 0,18 -4,36 -13,52 -12,22 -32,42 -58,45 -2,0 -4,0 -5,0 -11,0 -21,-2 -31,-6 -41,-16 -63,-59 -63,-101 0,-16 4,-32 10,-47 12,-24 34,-47 61,-50zm25 -11l0 0c-16,0 -28,3 -42,8 -34,13 -61,43 -71,78 -2,10 -4,21 -4,32 0,39 19,77 54,97 11,6 25,11 41,11 6,0 11,-1 16,-1 41,-6 77,-35 93,-73 5,-15 8,-30 8,-46l0 -6c-2,-43 -31,-86 -75,-97 -7,-2 -13,-3 -20,-3z" id="path89"/>
   </g>
   <path class="fil2" d="M4770 1404c0,24 -19,43 -56,57 8,-4 16,-9 23,-15 9,-7 13,-14 13,-21 0,-4 -2,-10 -7,-17 -4,-7 -6,-12 -6,-14 0,-3 2,-6 5,-9 3,-3 6,-5 9,-5 6,0 10,3 14,8 3,5 5,10 5,16z" id="path91"/>
  </g>
  <rect class="fil4" width="9946" height="1662" id="rect93"/>
 </g>
</svg>